# xmcd
#
# Track frame offsets:
#	150
#	16086
#	30768
#	46662
#	60913
#	75263
#	90836
#	104515
#	118478
#	133828
#	147523
#	164421
#	178837
#
# Disc length: 2578 seconds
#
# Revision: 1
# Processed by: cddbd v1.5.2PL0 Copyright (c) Steve Scherf et al.
# Submitted via: audiograbber 1.83.01
#
DISCID=9b0a100d
DTITLE=BELSY and FLORIAN - WIE EIN SCHÖNER TRAUM
DYEAR=2011
DGENRE=SCHLAGER
TTITLE0=BELSY and FLORIAN - ABER PASSEN MUASS DA DRIN
TTITLE1=BELSY and FLORIAN - KINDER VOM LAND
TTITLE2=BELSY and FLORIAN - WIE EIN SCHÖNER TRAUM
TTITLE3=BELSY and FLORIAN - BIS ANS ENDE DER WELT
TTITLE4=BELSY and FLORIAN - URLAUBSWALZER
TTITLE5=BELSY and FLORIAN - GLÜCK IST FÜR MICH
TTITLE6=BELSY and FLORIAN - SCHÖN DAS IHR ALLE DABEI SEID
TTITLE7=BELSY and FLORIAN - WER SINGEN KANN IST BESSER DRAN
TTITLE8=BELSY and FLORIAN - DU UND ICH
TTITLE9=BELSY and FLORIAN - WENN DER ABENDWIND MIT DEN WELLEN SINGT
TTITLE10=BELSY and FLORIAN - DAS KLEINE LIED VOM GROßEN GLÜCK
TTITLE11=BELSY and FLORIAN - FLIEG MIT MIR ZUM MOND
TTITLE12=BELSY and FLORIAN - PUPPENTHEATER
EXTD=
EXTT0=
EXTT1=
EXTT2=
EXTT3=
EXTT4=
EXTT5=
EXTT6=
EXTT7=
EXTT8=
EXTT9=
EXTT10=
EXTT11=
EXTT12=
PLAYORDER=
